HIERARCHY
ROOT Hips
{
	OFFSET -0.001795 -0.223333 0.028219
	CHANNELS 6 Xposition Yposition Zposition Zrotation Yrotation Xrotation 
	JOINT LeftUpLeg
	{
		OFFSET 0.069520 -0.091406 -0.006815
		CHANNELS 3 Zrotation Yrotation Xrotation
		JOINT LeftLeg
		{
			OFFSET 0.034277 -0.375199 -0.004496
			CHANNELS 3 Zrotation Yrotation Xrotation
			JOINT LeftFoot
			{
				OFFSET -0.013596 -0.397961 -0.043693
				CHANNELS 3 Zrotation Yrotation Xrotation
				JOINT LeftToe
				{
					OFFSET 0.026358 -0.055791 0.119288
					CHANNELS 3 Zrotation Yrotation Xrotation
					End Site
					{
						OFFSET 0.000000 0.000000 0.000000
					}
				}
			}
		}
	}
	JOINT RightUpLeg
	{
		OFFSET -0.067670 -0.090522 -0.004320
		CHANNELS 3 Zrotation Yrotation Xrotation
		JOINT RightLeg
		{
			OFFSET -0.038290 -0.382569 -0.008850
			CHANNELS 3 Zrotation Yrotation Xrotation
			JOINT RightFoot
			{
				OFFSET 0.015774 -0.398415 -0.042312
				CHANNELS 3 Zrotation Yrotation Xrotation
				JOINT RightToe
				{
					OFFSET -0.025372 -0.048144 0.123348
					CHANNELS 3 Zrotation Yrotation Xrotation
					End Site
					{
						OFFSET 0.000000 0.000000 0.000000
					}
				}
			}
		}
	}
	JOINT Spine
	{
		OFFSET -0.002533 0.108963 -0.026696
		CHANNELS 3 Zrotation Yrotation Xrotation
		JOINT Spine1
		{
			OFFSET 0.005487 0.135180 0.001092
			CHANNELS 3 Zrotation Yrotation Xrotation
			JOINT Spine2
			{
				OFFSET 0.001457 0.052922 0.025425
				CHANNELS 3 Zrotation Yrotation Xrotation
				JOINT Neck
				{
					OFFSET -0.002778 0.213870 -0.042857
					CHANNELS 3 Zrotation Yrotation Xrotation
					JOINT Head
					{
						OFFSET 0.005152 0.064970 0.051349
						CHANNELS 3 Zrotation Yrotation Xrotation
						End Site
						{
							OFFSET 0.000000 0.000000 0.000000
						}
					}
				}
				JOINT LeftShoulder
				{
					OFFSET 0.078845 0.121749 -0.034090
					CHANNELS 3 Zrotation Yrotation Xrotation
					JOINT LeftArm
					{
						OFFSET 0.090977 0.030469 -0.008868
						CHANNELS 3 Zrotation Yrotation Xrotation
						JOINT LeftForeArm
						{
							OFFSET 0.259612 -0.012772 -0.027456
							CHANNELS 3 Zrotation Yrotation Xrotation
							JOINT LeftHand
							{
								OFFSET 0.249234 0.008986 -0.001171
								CHANNELS 3 Zrotation Yrotation Xrotation
								End Site
								{
									OFFSET 0.000000 0.000000 0.000000
								}
							}
						}
					}
				}
				JOINT RightShoulder
				{
					OFFSET -0.081759 0.118833 -0.038615
					CHANNELS 3 Zrotation Yrotation Xrotation
					JOINT RightArm
					{
						OFFSET -0.096012 0.032551 -0.009143
						CHANNELS 3 Zrotation Yrotation Xrotation
						JOINT RightForeArm
						{
							OFFSET -0.253742 -0.013329 -0.021401
							CHANNELS 3 Zrotation Yrotation Xrotation
							JOINT RightHand
							{
								OFFSET -0.255298 0.007772 -0.005559
								CHANNELS 3 Zrotation Yrotation Xrotation
								End Site
								{
									OFFSET 0.000000 0.000000 0.000000
								}
							}
						}
					}
				}
			}
		}
	}
}
MOTION
Frames: 14
Frame Time: 0.050000
-0.018672 0.951203 -0.024182 2.866950 -1.304247 11.796444 3.470875 -0.784306 -10.769382 0.499561 0.215216 -6.869124 0.025510 6.663344 20.004514 0.000000 0.000000 0.000000 -5.077362 0.742701 -8.212236 -3.176547 -0.455573 -11.500576 -1.570752 -9.943806 19.886595 0.000000 0.000000 0.000000 5.958440 -0.971673 7.264716 -4.071027 1.837511 -1.936174 -4.063649 15.139610 4.516975 16.336247 -13.043822 -1.587229 0.000000 0.000000 0.000000 -8.453804 -2.134703 -1.692226 -51.205616 -13.188685 -0.721863 -27.485994 -36.509341 8.424807 0.000000 0.000000 0.000000 5.026104 3.877788 2.391678 57.946048 42.331296 18.660138 -11.760754 32.318029 -0.800857 0.000000 0.000000 0.000000 
-0.018164 0.951150 -0.023822 2.958791 -1.382558 11.507622 3.360740 -0.766030 -10.407895 0.426462 0.219626 -6.894179 0.052856 6.673898 19.938297 0.000000 0.000000 0.000000 -5.057301 0.730810 -8.053000 -3.447055 -0.434925 -11.208524 -1.553192 -9.893060 19.691139 0.000000 0.000000 0.000000 5.927982 -1.021479 7.925698 -3.951902 1.783443 -2.089012 -3.968840 14.776643 4.828307 16.126074 -13.200796 -0.843873 0.000000 0.000000 0.000000 -7.827603 -2.061932 -1.497260 -51.107916 -13.461894 -0.695600 -28.560526 -37.305320 9.036410 0.000000 0.000000 0.000000 5.003281 4.134017 2.470381 60.760195 42.500040 20.006343 -10.305456 31.108311 -0.492922 0.000000 0.000000 0.000000 
-0.017413 0.950920 -0.023851 3.071391 -1.555823 11.291957 3.266178 -0.768990 -10.424932 0.266624 0.209052 -6.418848 0.178726 6.773860 19.730868 0.000000 0.000000 0.000000 -5.153951 0.710280 -7.725232 -3.587776 -0.449856 -11.447108 -1.456917 -9.767208 19.679705 0.000000 0.000000 0.000000 5.965818 -1.037516 8.121816 -4.034840 1.831691 -1.567432 -3.838473 14.711269 4.726355 15.907238 -13.182244 -0.430929 0.000000 0.000000 0.000000 -6.861574 -2.418249 -1.091823 -51.210615 -13.897835 -0.598179 -29.902000 -38.126806 9.706897 0.000000 0.000000 0.000000 4.742603 4.465666 2.567558 62.309582 41.925747 20.368583 -9.351161 29.834455 -0.307843 0.000000 0.000000 0.000000 
-0.016525 0.951022 -0.024417 3.203859 -1.429178 11.392685 3.132956 -0.790328 -10.626784 0.163540 0.212460 -6.373113 0.100902 6.695130 19.763044 0.000000 0.000000 0.000000 -5.276564 0.711228 -7.774494 -3.733955 -0.459908 -11.570157 -1.515558 -9.866638 19.830876 0.000000 0.000000 0.000000 5.895876 -1.058706 8.414822 -3.929294 1.787686 -1.360723 -3.432412 14.397718 4.705629 16.014822 -13.462267 0.009814 0.000000 0.000000 0.000000 -6.798072 -2.824830 -0.886925 -50.666247 -14.068215 -0.499082 -32.295598 -39.044537 10.844498 0.000000 0.000000 0.000000 4.200578 5.116572 2.756543 62.586499 41.411235 20.155449 -8.015636 28.612873 -0.065817 0.000000 0.000000 0.000000 
-0.015701 0.951053 -0.025275 3.217749 -1.507579 11.541557 3.057245 -0.802722 -10.756129 0.180875 0.217023 -6.514940 0.131274 6.743759 19.835674 0.000000 0.000000 0.000000 -5.301500 0.724409 -7.972219 -3.834556 -0.464948 -11.638994 -1.465497 -9.828494 19.962135 0.000000 0.000000 0.000000 5.870486 -1.094533 8.811661 -3.917885 1.789512 -0.923401 -3.211313 14.191932 4.529798 16.051978 -13.728887 0.581448 0.000000 0.000000 0.000000 -6.374481 -2.996190 -0.691051 -50.272916 -14.552853 -0.308335 -36.198505 -39.944529 12.553128 0.000000 0.000000 0.000000 3.764510 5.782813 2.969175 61.606532 41.507935 19.765794 -6.503433 27.619248 0.198764 0.000000 0.000000 0.000000 
-0.015149 0.951035 -0.026091 3.142033 -1.455599 11.720292 3.011257 -0.826059 -11.068117 0.367837 0.203647 -6.413922 0.124972 6.738947 19.812763 0.000000 0.000000 0.000000 -5.258939 0.741287 -8.231647 -3.836110 -0.463090 -11.597530 -1.486805 -9.870618 20.050041 0.000000 0.000000 0.000000 5.864557 -1.172675 9.630458 -3.507591 1.602888 -0.944745 -3.136948 14.020508 4.388306 16.457539 -14.230427 0.924164 0.000000 0.000000 0.000000 -6.374085 -3.471915 -0.499235 -49.610104 -14.984469 -0.089561 -39.509979 -41.231860 14.277968 0.000000 0.000000 0.000000 3.131681 6.324534 3.111413 60.335886 41.298179 19.083483 -5.069807 27.105627 0.464998 0.000000 0.000000 0.000000 
-0.014945 0.951175 -0.026772 2.992304 -1.453467 12.338101 3.163462 -0.854403 -11.618903 0.412071 0.213065 -6.703961 0.124861 6.786172 20.015484 0.000000 0.000000 0.000000 -4.947952 0.800702 -9.051269 -4.166596 -0.451993 -11.411594 -1.482311 -9.902677 20.218734 0.000000 0.000000 0.000000 5.918671 -1.229171 10.016150 -3.314453 1.513199 -0.881338 -2.894395 13.955988 4.520965 16.684979 -14.518937 1.126335 0.000000 0.000000 0.000000 -6.504152 -3.778703 -0.404646 -49.235068 -15.552930 0.150152 -42.869803 -42.372402 16.091440 0.000000 0.000000 0.000000 2.666497 6.809247 3.257765 59.170083 41.486108 18.686171 -4.971934 26.560142 0.452230 0.000000 0.000000 0.000000 
-0.014997 0.951083 -0.027226 2.764209 -1.233892 12.811959 3.509764 -0.858022 -11.951493 0.309064 0.234237 -7.126069 0.025138 6.705702 20.133057 0.000000 0.000000 0.000000 -4.674674 0.842094 -9.594249 -4.211538 -0.448262 -11.332366 -1.584583 -10.054575 20.345691 0.000000 0.000000 0.000000 5.883182 -1.283269 10.512793 -2.903573 1.324319 -1.044733 -2.570267 13.553809 4.747633 17.288200 -15.014988 1.035623 0.000000 0.000000 0.000000 -6.854252 -4.120710 -0.318286 -48.667788 -16.176594 0.432217 -45.066998 -43.781626 17.727935 0.000000 0.000000 0.000000 2.211088 7.311679 3.391783 57.491192 41.444203 17.868449 -4.126698 26.868332 0.628841 0.000000 0.000000 0.000000 
-0.015246 0.950994 -0.027448 2.527259 -1.076730 13.395768 3.885030 -0.864534 -12.388856 0.199525 0.254221 -7.532650 -0.035564 6.677875 20.284808 0.000000 0.000000 0.000000 -4.348374 0.904098 -10.377991 -4.330201 -0.427611 -11.036730 -1.674636 -10.185376 20.398646 0.000000 0.000000 0.000000 6.059924 -1.341408 10.686018 -2.556184 1.166555 -0.953146 -2.316185 13.421097 4.737461 17.924580 -15.506645 0.881502 0.000000 0.000000 0.000000 -7.265917 -4.463086 -0.265427 -48.294609 -16.246199 0.502600 -47.597690 -44.890485 19.401676 0.000000 0.000000 0.000000 1.686864 7.690259 3.476374 56.246117 40.912939 17.032117 -3.766040 27.469724 0.730129 0.000000 0.000000 0.000000 
-0.015503 0.951039 -0.027476 2.430381 -0.994873 13.978845 4.085533 -0.873680 -12.687702 0.113931 0.280443 -8.146474 -0.099999 6.666251 20.566965 0.000000 0.000000 0.000000 -4.237730 0.948038 -10.931707 -4.343846 -0.438693 -11.155414 -1.707076 -10.261658 20.598550 0.000000 0.000000 0.000000 6.062959 -1.349141 10.609571 -2.268288 1.035970 -1.033518 -1.858567 12.830242 5.033922 18.370500 -15.797540 0.698695 0.000000 0.000000 0.000000 -7.528205 -4.564411 -0.203827 -48.426757 -16.324032 0.540113 -49.134829 -46.886959 21.335110 0.000000 0.000000 0.000000 1.021000 8.143384 3.538978 55.462266 40.498224 16.384376 -3.324423 28.001494 0.841525 0.000000 0.000000 0.000000 
-0.015776 0.951124 -0.027286 2.347774 -0.890502 14.296695 4.289208 -0.871450 -12.820704 -0.019651 0.298402 -8.525115 -0.165641 6.631335 20.741311 0.000000 0.000000 0.000000 -4.297725 0.987608 -11.560081 -4.072438 -0.397760 -10.591285 -1.818163 -10.393466 20.472309 0.000000 0.000000 0.000000 6.336234 -1.409185 10.706018 -2.141021 0.977689 -0.932869 -1.672618 12.337384 5.132643 18.757760 -16.070385 0.587254 0.000000 0.000000 0.000000 -8.077518 -4.716467 -0.193049 -48.086999 -16.379083 0.600866 -50.512549 -48.104124 22.826315 0.000000 0.000000 0.000000 0.870336 8.490297 3.636646 54.616747 40.217968 15.797420 -3.249679 28.444128 0.864995 0.000000 0.000000 0.000000 
-0.016009 0.951357 -0.026851 2.212378 -0.901127 14.608739 4.678423 -0.853900 -12.930743 -0.388671 0.321343 -8.868966 -0.161212 6.675649 20.939639 0.000000 0.000000 0.000000 -4.325839 1.014240 -11.943248 -3.756446 -0.391460 -10.470071 -1.817680 -10.408790 20.544416 0.000000 0.000000 0.000000 6.461651 -1.423500 10.573683 -2.013196 0.919733 -0.973310 -1.257007 11.809457 5.598396 19.370951 -16.605303 0.544452 0.000000 0.000000 0.000000 -8.578095 -4.828586 -0.157501 -48.112744 -16.717579 0.729975 -50.874642 -50.352588 24.497963 0.000000 0.000000 0.000000 1.161321 8.472671 3.639874 53.129431 40.112307 14.958241 -2.657984 29.014950 1.028325 0.000000 0.000000 0.000000 
-0.016247 0.951649 -0.026123 2.023583 -1.038910 14.616706 5.002084 -0.817142 -12.643267 -0.583033 0.339686 -9.247807 -0.101447 6.762861 21.086497 0.000000 0.000000 0.000000 -4.323394 1.020652 -12.000720 -3.369868 -0.385432 -10.352228 -1.735812 -10.307677 20.552490 0.000000 0.000000 0.000000 6.677773 -1.461391 10.627623 -1.853643 0.847602 -0.563254 -1.227876 11.401334 5.497086 19.775121 -17.066770 0.806696 0.000000 0.000000 0.000000 -8.906127 -4.828960 -0.152636 -48.337332 -17.102574 0.912970 -50.663058 -52.175571 25.576467 0.000000 0.000000 0.000000 1.057757 8.614762 3.654045 52.310959 39.987537 14.514837 -2.722319 29.504323 1.018959 0.000000 0.000000 0.000000 
-0.016516 0.951803 -0.025124 1.833010 -1.131352 14.561191 5.291941 -0.784585 -12.373148 -0.712066 0.349992 -9.455758 -0.045145 6.827409 21.125952 0.000000 0.000000 0.000000 -4.368984 1.013552 -11.895175 -2.878803 -0.388838 -10.353128 -1.675800 -10.227138 20.544839 0.000000 0.000000 0.000000 6.682482 -1.454170 10.570426 -1.493694 0.687043 -0.563431 -0.959835 10.954258 6.007967 20.500564 -17.740725 0.797844 0.000000 0.000000 0.000000 -9.115001 -4.882015 -0.084620 -48.964399 -17.783380 1.161353 -49.708245 -54.539026 26.595482 0.000000 0.000000 0.000000 1.163099 8.700189 3.669261 51.295978 39.933052 13.949489 -2.350245 30.117280 1.133793 0.000000 0.000000 0.000000 
